# xmcd
#
# Track frame offsets: 
#        150
#        24205
#        45025
#        63497
#        81122
#        102475
#        122730
#        142412
#        162812
#        181980
#        203850
#
# Disc length: 2909 seconds
#
# Revision: 4
# Processed by: cddbd v1.5.1PL0 Copyright (c) Steve Scherf et al.
# Submitted via: ExactAudioCopy v0.95b1
#
DISCID=8f0b5b0b
DTITLE=Des'ree - I Ain't Movin'
DYEAR=1994
DGENRE=R&B
TTITLE0=Herald The Day
TTITLE1=Crazy Maze
TTITLE2=You Gotta Be
TTITLE3=Little Child
TTITLE4=Strong Enough
TTITLE5=Trip On Love
TTITLE6=I Ain't Movin'
TTITLE7=Living In The City
TTITLE8=In My Dreams
TTITLE9=Love Is Here
TTITLE10=I Ain't Movin' (Percussion Reprise)
EXTD=
EXTT0=
EXTT1=
EXTT2=
EXTT3=
EXTT4=
EXTT5=
EXTT6=
EXTT7=
EXTT8=
EXTT9=
EXTT10=
PLAYORDER=
